{"title":"Waiting.For.Forever.2010.720p.BRRip.x264.Feel-Free","uid":6351967,"size":2399490071,"categoryP":"video","categoryS":"hd___movies","magnet":"?xt=urn:btih:fd716664927391e4d85f1f60ee652b1d62f76e43&amp;dn=Waiting.For.Forever.2010.720p.BRRip.x264.Feel-Free&amp;tr=udp%3A%2F%2Ftracker.openbittorrent.com%3A80&amp;tr=udp%3A%2F%2Fopen.demonii.com%3A1337&amp;tr=udp%3A%2F%2Ftracker.coppersurfer.tk%3A6969&amp;tr=udp%3A%2F%2Fexodus.desync.com%3A6969","seeders":0,"leechers":1,"uploader":".BONE.","files":9,"time":1304030436,"description":"Genre:Drama | Romance\nLanguage:English\n &lt;a href=&quot;\nhttp://www.imdb.com/title/tt1296898/&quot; rel=&quot;nofollow&quot; target=&quot;_NEW&quot;&gt;\nhttp://www.imdb.com/title/tt1296898/&lt;/a&gt;\n\nSource:BluRay.x264.DTS-HDChina\n\n\nFormat : MPEG-4\nFormat profile : Base Media\nCodec ID : isom\nFile size : 2.23 GiB\nDuration : 1h 34mn\nOverall bit rate : 3 390 Kbps\n\n\nVideo\nFormat profile : &lt;a class=&quot;__cf_email__&quot; href=&quot;/cdn-cgi/l/email-protection&quot; data-cfemail=&quot;c189a8a6a9818df5eff0&quot;&gt;[email&amp;#160;protected]&lt;/a&gt;&lt;script cf-hash='f9e31' type=&quot;text/javascript&quot;&gt;\n/* &lt;![CDATA[ */!function(){try{var t=&quot;currentScript&quot;in document?document.currentScript:function(){for(var t=document.getElementsByTagName(&quot;script&quot;),e=t.length;e--;)if(t[e].getAttribute(&quot;cf-hash&quot;))return t[e]}();if(t&amp;&amp;t.previousSibling){var e,r,n,i,c=t.previousSibling,a=c.getAttribute(&quot;data-cfemail&quot;);if(a){for(e=&quot;&quot;,r=parseInt(a.substr(0,2),16),n=2;a.length-n;n+=2)i=parseInt(a.substr(n,2),16)^r,e+=String.fromCharCode(i);e=document.createTextNode(e),c.parentNode.replaceChild(e,c)}}}catch(u){}}();/* ]]&gt; */&lt;/script&gt;\nFormat settings, CABAC : Yes\nFormat settings, ReFrames : 3 frames\nCodec ID : avc1\nCodec ID/Info : Advanced Video Coding\nDuration : 1h 34mn\nBit rate mode : Variable\nBit rate : 3 000 Kbps\nMaximum bit rate : 19.7 Mbps\nWidth : 1 280 pixels\nHeight : 688 pixels\nDisplay aspect ratio : 1.860\nFrame rate mode : Constant\nFrame rate : 23.976 fps\nColor space : YUV\nChroma subsampling : 4:2:0\nBit depth : 8 bits\nScan type : Progressive\nBits/(Pixel*Frame) : 0.142\nStream size : 1.93 GiB (87%)\nWriting library : x264\n\n\nAudio\nID : 2\nFormat : AAC\nFormat/Info : Advanced Audio Codec\nFormat version : Version 4\nFormat profile : LC\nFormat settings, SBR : No\nCodec ID : 40\nDuration : 1h 34mn\nBit rate mode : Variable\nBit rate : 444 Kbps\nMaximum bit rate : 516 Kbps\nChannel(s) : 6 channels\nChannel positions : Front: L C R, Side: L R, LFE\nSampling rate : 48.0 KHz\nStream size : 299 MiB (13%)\n\n\nPlot:\nA Hollywood-set romantic tale of a guy who is content to live his life without a job yet with the love of his life, a young actress.\n &lt;a href=&quot;\nhttp://www.pix2links.com/images/34158070513542644158.png&quot; rel=&quot;nofollow&quot; target=&quot;_NEW&quot;&gt;\nhttp://www.pix2links.com/images/34158070513542644158.png&lt;/a&gt;\n &lt;a href=&quot;\nhttp://www.pix2links.com/images/35135803023439393266.png&quot; rel=&quot;nofollow&quot; target=&quot;_NEW&quot;&gt;\nhttp://www.pix2links.com/images/35135803023439393266.png&lt;/a&gt;\n &lt;a href=&quot;\nhttp://www.pix2links.com/images/44607406315709516842.png&quot; rel=&quot;nofollow&quot; target=&quot;_NEW&quot;&gt;\nhttp://www.pix2links.com/images/44607406315709516842.png&lt;/a&gt;\n &lt;a href=&quot;\nhttp://www.pix2links.com/images/30709970494899755846.png&quot; rel=&quot;nofollow&quot; target=&quot;_NEW&quot;&gt;\nhttp://www.pix2links.com/images/30709970494899755846.png&lt;/a&gt;\n &lt;a href=&quot;\nhttp://www.pix2links.com/images/73905039028332295901.png&quot; rel=&quot;nofollow&quot; target=&quot;_NEW&quot;&gt;\nhttp://www.pix2links.com/images/73905039028332295901.png&lt;/a&gt;","torrent":{"xt":"urn:btih:fd716664927391e4d85f1f60ee652b1d62f76e43","amp;dn":"Waiting.For.Forever.2010.720p.BRRip.x264.Feel-Free","amp;tr":["udp%3A%2F%2Ftracker.openbittorrent.com%3A80","udp%3A%2F%2Fopen.demonii.com%3A1337","udp%3A%2F%2Ftracker.coppersurfer.tk%3A6969","udp%3A%2F%2Fexodus.desync.com%3A6969"],"infoHash":"fd716664927391e4d85f1f60ee652b1d62f76e43","infoHashBuffer":{"type":"Buffer","data":[253,113,102,100,146,115,145,228,216,95,31,96,238,101,43,29,98,247,110,67]},"announce":[],"urlList":[]}}